<svg width="1424" height="61" viewBox="0 0 1424 61" fill="none" xmlns="http://www.w3.org/2000/svg">
<path d="M1 1.61278C54.3967 15.5111 107.793 29.4102 161.193 25.6865C214.589 21.9619 267.986 0.616112 321.383 1.61278C374.782 2.60945 428.179 25.9486 481.575 25.6865C534.972 25.4235 588.369 1.56004 641.768 1.61278C695.165 1.66552 748.561 25.6337 801.958 25.6865C855.357 25.7384 908.754 1.87494 962.15 1.61278C1015.55 1.35062 1068.94 24.6898 1122.34 25.6865C1175.74 26.6824 1229.14 5.33653 1282.53 1.61278C1335.93 -2.11097 1389.33 11.7874 1442.73 25.6865" stroke="#923BFF" stroke-width="2"/>
<path d="M1 33.0935C54.3967 20.264 107.793 7.43449 161.193 10.8713C214.589 14.3088 267.986 34.0126 321.383 33.0935C374.782 32.1736 428.179 10.6293 481.575 10.8713C534.972 11.114 588.369 33.1416 641.768 33.0935C695.165 33.0447 748.561 10.9201 801.958 10.8713C855.357 10.8232 908.754 32.8508 962.15 33.0935C1015.55 33.3355 1068.94 11.7911 1122.34 10.8713C1175.74 9.95215 1229.14 29.656 1282.53 33.0935C1335.93 36.5303 1389.33 23.7008 1442.73 10.8713" stroke="#923BFF" stroke-width="2"/>
<path d="M1 20.1308C54.3967 32.9603 107.793 45.7898 161.193 42.3523C214.589 38.9147 267.986 19.2109 321.383 20.1308C374.782 21.0507 428.179 42.5943 481.575 42.3523C534.972 42.1103 588.369 20.0827 641.768 20.1308C695.165 20.1789 748.561 42.3042 801.958 42.3523C855.357 42.4004 908.754 20.3728 962.15 20.1308C1015.55 19.8888 1068.94 41.4324 1122.34 42.3523C1175.74 43.2722 1229.14 23.5683 1282.53 20.1308C1335.93 16.6932 1389.33 29.5227 1442.73 42.3523" stroke="#923BFF" stroke-width="2"/>
<path d="M1 51.6116C54.3967 37.7125 107.793 23.8141 161.193 27.5379C214.589 31.2616 267.986 52.6075 321.383 51.6116C374.782 50.6149 428.179 27.2757 481.575 27.5379C534.972 27.8001 588.369 51.6635 641.768 51.6116C695.165 51.5588 748.561 27.5906 801.958 27.5379C855.357 27.4852 908.754 51.3486 962.15 51.6116C1015.55 51.8737 1068.94 28.5346 1122.34 27.5379C1175.74 26.5412 1229.14 47.887 1282.53 51.6116C1335.93 55.3353 1389.33 41.4362 1442.73 27.5379" stroke="#923BFF" stroke-width="2"/>
<path d="M1 36.7972C54.3967 49.626 107.793 62.4555 161.193 59.0187C214.589 55.5812 267.986 35.8773 321.383 36.7972C374.782 37.7163 428.179 59.2607 481.575 59.0187C534.972 58.7759 588.369 36.7483 641.768 36.7972C695.165 36.8453 748.561 58.9698 801.958 59.0187C855.357 59.0668 908.754 37.0392 962.15 36.7972C1015.55 36.5544 1068.94 58.0988 1122.34 59.0187C1175.74 59.9378 1229.14 40.234 1282.53 36.7972C1335.93 33.3597 1389.33 46.1892 1442.73 59.0187" stroke="#923BFF" stroke-width="2"/>
</svg>
